<?xml version="1.0" standalone="no"?>
<!DOCTYPE svg PUBLIC "-//W3C//DTD SVG 20010904//EN"
 "http://www.w3.org/TR/2001/REC-SVG-20010904/DTD/svg10.dtd">
<svg version="1.0" xmlns="http://www.w3.org/2000/svg"
 width="1200.000000pt" height="1200.000000pt" viewBox="0 0 1200.000000 1200.000000"
 preserveAspectRatio="xMidYMid meet">
<metadata>
Created by potrace 1.11, written by Peter Selinger 2001-2013
</metadata>
<g transform="translate(0.000000,1200.000000) scale(0.100000,-0.100000)"
fill="#000000" stroke="none">
<path d="M2359 11636 c-2 -2 -31 -7 -64 -10 -55 -6 -98 -13 -150 -22 -11 -3
-33 -7 -50 -9 -45 -8 -201 -53 -278 -81 -237 -84 -497 -238 -676 -399 -97 -87
-209 -204 -261 -274 -14 -18 -35 -45 -46 -59 -18 -23 -103 -154 -141 -217 -14
-24 -84 -165 -107 -216 -51 -115 -116 -343 -140 -489 -27 -162 -28 -493 -2
-650 51 -314 151 -578 314 -830 159 -247 377 -466 622 -625 41 -27 76 -49 77
-50 1 0 -24 -77 -56 -170 -57 -169 -127 -429 -156 -580 -8 -44 -17 -90 -19
-101 -5 -26 -14 -81 -21 -131 -3 -21 -8 -49 -10 -63 -2 -14 -7 -52 -10 -85 -3
-33 -8 -71 -10 -85 -12 -73 -20 -254 -20 -495 0 -278 6 -397 30 -580 3 -22 7
-60 10 -85 3 -25 8 -56 10 -70 2 -14 7 -41 10 -60 3 -19 8 -42 10 -50 2 -8 7
-35 10 -60 3 -25 10 -61 15 -80 5 -19 11 -47 14 -62 27 -153 171 -627 217
-710 5 -10 9 -22 9 -28 0 -5 11 -33 24 -62 21 -47 29 -67 38 -96 1 -4 46 -95
99 -202 96 -191 197 -369 285 -501 24 -37 44 -69 44 -72 0 -3 -24 -8 -52 -12
-69 -9 -216 -50 -298 -82 -93 -37 -240 -121 -302 -171 -104 -85 -187 -166
-236 -232 -15 -19 -30 -37 -33 -40 -4 -3 -31 -45 -61 -95 -143 -239 -199 -448
-193 -730 6 -290 85 -522 261 -761 55 -75 172 -197 233 -242 20 -15 38 -29 41
-32 15 -16 125 -83 195 -118 76 -38 207 -89 250 -98 197 -40 214 -42 365 -39
85 2 169 6 185 9 164 34 263 65 378 122 289 141 514 379 639 674 36 85 71 195
82 260 3 19 8 46 11 59 2 13 5 41 7 63 1 22 5 41 9 43 3 3 62 -27 130 -66 226
-130 441 -231 684 -324 124 -47 367 -128 421 -140 10 -2 64 -16 119 -30 94
-24 308 -68 385 -80 19 -3 46 -7 60 -10 14 -3 45 -7 70 -10 25 -3 63 -7 85
-10 22 -3 58 -8 80 -10 216 -27 797 -26 995 0 19 3 58 7 85 10 77 8 141 17
215 30 8 1 35 6 60 10 25 4 54 9 65 11 11 3 42 9 70 14 l49 10 96 -97 c101
-104 204 -197 273 -247 23 -17 44 -33 47 -37 3 -3 60 -42 127 -86 338 -223
739 -365 1153 -410 143 -15 506 -9 620 11 14 3 47 7 74 11 27 3 52 8 55 10 3
1 22 6 41 9 78 12 280 71 396 114 279 105 595 298 817 501 125 113 240 239
327 356 25 33 48 61 53 63 4 2 7 10 7 18 0 8 5 14 10 14 6 0 10 5 10 12 0 6 8
21 18 32 51 57 171 283 236 444 98 242 156 467 183 717 16 138 7 560 -12 635
-2 8 -6 33 -9 55 -33 232 -129 523 -251 762 -52 101 -127 222 -235 378 -47 68
-161 196 -273 305 l-77 76 19 100 c26 129 29 146 42 229 6 39 12 80 14 91 4
23 13 103 20 169 27 239 27 773 1 995 -3 19 -7 59 -10 88 -7 61 -13 106 -26
182 -5 30 -12 71 -15 90 -54 321 -169 705 -321 1069 -118 283 -366 709 -567
976 -330 438 -756 842 -1182 1122 -60 40 -115 76 -121 80 -50 38 -314 183
-469 258 -358 175 -827 333 -1155 391 -14 3 -47 9 -75 14 -90 17 -169 29 -215
35 -25 3 -58 7 -75 10 -16 2 -57 7 -90 10 -33 3 -98 8 -145 12 -174 16 -688 8
-850 -12 -19 -2 -57 -6 -85 -10 -27 -3 -63 -7 -80 -10 -36 -6 -99 -15 -140
-21 -16 -2 -52 -8 -80 -14 -27 -5 -62 -12 -77 -15 -50 -9 -77 -15 -166 -36
-48 -12 -94 -22 -102 -24 -8 -2 -46 -13 -85 -25 -38 -11 -95 -28 -125 -36 -30
-9 -79 -25 -108 -35 -29 -10 -58 -19 -65 -19 -12 0 -77 94 -77 111 0 5 -4 9
-10 9 -5 0 -10 5 -10 10 0 6 -5 16 -10 23 -6 7 -27 35 -47 62 -219 295 -556
560 -878 690 -88 35 -258 93 -290 99 -14 3 -33 7 -43 10 -22 7 -58 14 -167 32
-79 14 -486 30 -496 20z m8055 -7946 c70 -136 120 -278 142 -400 3 -14 7 -32
9 -40 30 -103 26 -459 -6 -600 -6 -25 -13 -55 -15 -68 -20 -103 -107 -313
-180 -435 -214 -355 -563 -619 -956 -721 -94 -25 -118 -30 -218 -43 -73 -10
-328 -10 -410 1 -67 8 -291 62 -319 76 -9 4 -52 23 -96 41 -83 34 -231 115
-241 130 -2 5 35 29 83 53 218 112 461 261 633 389 36 26 78 58 95 70 36 27
261 214 312 259 149 135 381 380 508 538 33 41 62 77 65 80 3 3 23 30 45 60
22 30 42 57 46 60 3 3 18 23 32 45 14 22 49 74 77 115 89 129 265 428 301 510
10 25 11 25 25 5 8 -11 39 -67 68 -125z"/>
<path d="M10360 11624 c-223 -43 -422 -169 -559 -352 -69 -91 -134 -230 -156
-330 -3 -12 -8 -32 -11 -44 -14 -55 -13 -256 2 -333 82 -433 455 -743 894
-743 47 0 108 4 135 9 28 5 61 12 75 14 14 3 39 9 55 14 292 94 515 317 605
606 29 95 35 141 35 270 -1 162 -25 265 -91 399 -50 99 -88 151 -173 237 -118
119 -253 196 -418 240 -95 26 -295 32 -393 13z"/>
</g>
</svg>
