<!-- A sprite that contains all SVG files -->
<svg xmlns="http://www.w3.org/2000/svg" xmlns:xlink="http://www.w3.org/1999/xlink">
  <defs>
    <symbol id="bgPattern" fill="none" xmlns="http://www.w3.org/2000/svg" viewBox="0 0 1920 560" preserveAspectRatio="xMinYMin slice">
      <g fillRule="evenodd" clipRule="evenodd" fill="currentColor">
        <path d="M582.042 384.755c4.337 0 7.854 3.502 7.854 7.823 0 8.08 6.501 14.515 14.378 14.515 7.878 0 14.379-6.435 14.379-14.515 0-4.321 3.517-7.823 7.854-7.823 4.338 0 7.854 3.502 7.854 7.823 0 16.594-13.406 30.161-30.087 30.161-16.68 0-30.086-13.567-30.086-30.161 0-4.321 3.516-7.823 7.854-7.823zM626.506 19.498c-10.987 0-19.985 8.947-19.985 20.1 0 11.151 8.998 20.099 19.985 20.099 4.338 0 7.854 3.502 7.854 7.823 0 4.32-3.516 7.823-7.854 7.823-19.766 0-35.693-16.055-35.693-35.746 0-19.69 15.928-35.746 35.693-35.746 4.338 0 7.854 3.503 7.854 7.824 0 4.32-3.516 7.823-7.854 7.823zM271.555.385c4.337 0 7.854 3.503 7.854 7.823v26.154c0 17.09-13.892 30.967-31.054 30.967s-31.053-13.876-31.053-30.967c0-4.321 3.516-7.824 7.854-7.824 4.337 0 7.854 3.503 7.854 7.824 0 8.473 6.882 15.321 15.345 15.321 8.464 0 15.346-6.848 15.346-15.321V8.208c0-4.32 3.516-7.823 7.854-7.823zM60.917 455.861c-24.582 0-44.436 19.728-44.436 43.978s19.854 43.978 44.436 43.978c4.338 0 7.854 3.503 7.854 7.824 0 4.32-3.516 7.823-7.854 7.823-33.176 0-60.144-26.653-60.144-59.625s26.968-59.624 60.144-59.624h47.855c4.337 0 7.854 3.502 7.854 7.823 0 4.32-3.517 7.823-7.854 7.823H60.917z" />
        <path d="M57.725 490.524c-5.517 0-9.538 4.242-9.538 8.93s4.02 8.93 9.538 8.93c4.338 0 7.854 3.503 7.854 7.824 0 4.32-3.516 7.823-7.854 7.823-13.693 0-25.246-10.758-25.246-24.577 0-13.819 11.553-24.577 25.246-24.577h18.568c4.337 0 7.854 3.503 7.854 7.823 0 4.321-3.517 7.824-7.854 7.824H57.725zM0 34.4C0 15.44 15.746.386 34.776.386h75.929c4.338 0 7.854 3.502 7.854 7.823 0 4.32-3.516 7.823-7.854 7.823h-75.93c-10.706 0-19.067 8.396-19.067 18.366 0 4.32-3.516 7.823-7.854 7.823S0 38.72 0 34.4zM579.843 43.256c0-23.273-18.99-42.1-42.367-42.1h-97.338c-4.337 0-7.854 3.502-7.854 7.823 0 4.32 3.517 7.823 7.854 7.823h97.338c14.745 0 26.659 11.865 26.659 26.454 0 4.32 3.516 7.823 7.854 7.823 4.337 0 7.854-3.502 7.854-7.823zM572.254 120.931c0-17.055 13.945-30.808 31.053-30.808 17.109 0 31.054 13.753 31.054 30.808v64.827c0 4.32-3.516 7.823-7.854 7.823s-7.854-3.503-7.854-7.823v-64.827c0-8.334-6.833-15.162-15.346-15.162s-15.345 6.828-15.345 15.162v10.035c0 4.32-3.517 7.823-7.854 7.823-4.338 0-7.854-3.503-7.854-7.823v-10.035zM158.558 226.462c4.338 0 7.854 3.503 7.854 7.823v24.759c0 25.846 21.008 46.783 46.904 46.783h21.81c22.543 0 40.802 18.221 40.802 40.679 0 4.321-3.516 7.823-7.854 7.823-4.337 0-7.854-3.502-7.854-7.823 0-13.834-11.243-25.033-25.094-25.033h-21.81c-34.588 0-62.612-27.959-62.612-62.429v-24.759c0-4.32 3.516-7.823 7.854-7.823zm.617 184.601c0-21.686 17.733-39.196 39.519-39.196h69.381c4.338 0 7.854 3.502 7.854 7.823 0 4.32-3.516 7.823-7.854 7.823h-69.381c-13.189 0-23.811 10.583-23.811 23.55s10.622 23.551 23.811 23.551h28.636c4.337 0 7.854 3.502 7.854 7.823 0 4.32-3.517 7.823-7.854 7.823h-28.636c-21.786 0-39.519-17.51-39.519-39.197zm68.36 56.131c4.338 0 7.854 3.502 7.854 7.823 0 22.293-18.124 40.379-40.5 40.379h-49.33c-7.855 0-14.241 6.354-14.241 14.213 0 7.853 6.385 14.208 14.241 14.208h4.136c4.338 0 7.854 3.503 7.854 7.824 0 4.32-3.516 7.823-7.854 7.823h-4.136c-16.548 0-29.949-13.378-29.949-29.855 0-16.481 13.4-29.859 29.949-29.859h49.33c13.684 0 24.792-11.064 24.792-24.733 0-4.321 3.517-7.823 7.854-7.823zM211.889 159.183c0-12.829 10.441-23.229 23.32-23.229 12.88 0 23.321 10.4 23.321 23.229 0 12.829-10.441 23.229-23.321 23.229-12.879 0-23.32-10.4-23.32-23.229zm23.32-7.582c-4.204 0-7.612 3.394-7.612 7.582s3.408 7.582 7.612 7.582c4.205 0 7.613-3.394 7.613-7.582s-3.408-7.582-7.613-7.582zM247.461 468.258c0-16.615 13.621-29.969 30.28-29.969s30.28 13.354 30.28 29.969c0 16.615-13.621 29.968-30.28 29.968s-30.28-13.353-30.28-29.968zm30.28-14.323c-8.112 0-14.572 6.476-14.572 14.323 0 7.846 6.46 14.322 14.572 14.322 8.112 0 14.572-6.476 14.572-14.322 0-7.847-6.46-14.323-14.572-14.323zM46.785 106.804c0-17.721 14.423-32.087 32.214-32.087 17.79 0 32.213 14.366 32.213 32.087 0 17.721-14.422 32.087-32.213 32.087s-32.214-14.366-32.214-32.087zM79 90.364c-9.116 0-16.506 7.36-16.506 16.44 0 9.08 7.39 16.441 16.506 16.441s16.505-7.361 16.505-16.441c0-9.08-7.39-16.44-16.505-16.44z" />
        <path d="M17.013 106.226c0-33.885 27.945-61.165 62.18-61.165 34.233 0 62.179 27.28 62.179 61.165 0 33.886-27.946 61.165-62.18 61.165-4.337 0-7.854-3.502-7.854-7.823 0-4.32 3.517-7.823 7.854-7.823 25.772 0 46.472-20.485 46.472-45.519s-20.7-45.518-46.472-45.518c-25.771 0-46.471 20.484-46.471 45.518 0 4.321-3.516 7.824-7.854 7.824s-7.854-3.503-7.854-7.824zM577.029 436.381c1.124-4.173 5.432-6.647 9.622-5.527 34.596 9.252 54.766 45.117 45.429 79.893-9.339 34.782-44.79 55.788-79.393 46.538-34.597-9.253-54.768-45.119-45.43-79.896 1.121-4.174 5.426-6.652 9.616-5.536 4.191 1.116 6.679 5.405 5.559 9.579-7.17 26.702 8.369 53.799 34.326 60.742 25.952 6.937 52.979-8.771 60.147-35.469 7.17-26.703-8.37-53.798-34.327-60.74-4.19-1.12-6.674-5.411-5.549-9.584zM154.736 350.702c11.065-8.586 24.741-13.705 39.566-13.705h40.52c4.338 0 7.854 3.503 7.854 7.823 0 4.321-3.516 7.824-7.854 7.824h-40.52c-11.107 0-21.427 3.817-29.913 10.401-3.422 2.656-8.357 2.045-11.022-1.363a7.803 7.803 0 0 1 1.369-10.98zm-7.434 18.636c3.782 2.115 5.126 6.884 3.002 10.652-4.91 8.71-7.772 19.018-7.772 30.116 0 32.203 23.771 57.068 51.626 57.068 4.337 0 7.854 3.503 7.854 7.824 0 4.32-3.517 7.823-7.854 7.823-37.845 0-67.334-33.241-67.334-72.715 0-13.791 3.56-26.736 9.784-37.777 2.124-3.767 6.911-5.106 10.694-2.991zM104.784 189.417c0-16.552 13.47-29.969 30.087-29.969 4.338 0 7.854 3.502 7.854 7.823 0 4.321-3.516 7.823-7.854 7.823-7.941 0-14.379 6.412-14.379 14.323 0 7.91 6.438 14.322 14.379 14.322s14.379-6.412 14.379-14.322v-22.146c0-4.321 3.516-7.823 7.854-7.823 4.337 0 7.854 3.502 7.854 7.823v22.146c0 16.551-13.47 29.968-30.087 29.968-16.617 0-30.087-13.417-30.087-29.968zM133.783 8.208c0-4.32 3.517-7.823 7.854-7.823h29.386c20.616 0 37.24 16.742 37.24 37.287 0 20.544-16.624 37.286-37.24 37.286-20.615 0-37.24-16.742-37.24-37.286 0-4.321 3.517-7.824 7.854-7.824 4.338 0 7.854 3.503 7.854 7.824 0 12 9.689 21.64 21.532 21.64 11.844 0 21.532-9.64 21.532-21.64s-9.688-21.64-21.532-21.64h-29.386c-4.337 0-7.854-3.503-7.854-7.824zM35.5 298.724c-9.943 0-17.859 7.921-17.859 17.516 0 9.595 7.916 17.515 17.859 17.515 4.338 0 7.854 3.503 7.854 7.824 0 4.32-3.516 7.823-7.854 7.823-18.459 0-33.567-14.768-33.567-33.162s15.108-33.162 33.567-33.162 33.567 14.768 33.567 33.162v77.493c0 4.321-3.517 7.823-7.854 7.823-4.338 0-7.854-3.502-7.854-7.823V316.24c0-9.595-7.916-17.516-17.86-17.516zM510.775 319.401c0-4.32 3.516-7.823 7.854-7.823h77.718c17.274 0 31.054 14.144 31.054 31.317 0 17.173-13.78 31.316-31.054 31.316-17.271 0-31.058-14.141-31.058-31.316 0-4.321 3.517-7.823 7.854-7.823 4.338 0 7.854 3.502 7.854 7.823 0 8.775 6.994 15.67 15.35 15.67 8.355 0 15.346-6.893 15.346-15.67 0-8.777-6.991-15.671-15.346-15.671h-77.718c-4.338 0-7.854-3.502-7.854-7.823zM406.111 0c4.338 0 7.854 3.503 7.854 7.823v78.143c0 17.847-14.7 32.127-32.6 32.127-17.9 0-32.6-14.28-32.6-32.127s14.7-32.127 32.6-32.127c4.338 0 7.854 3.503 7.854 7.823s-3.516 7.823-7.854 7.823c-9.434 0-16.892 7.483-16.892 16.481 0 8.999 7.458 16.481 16.892 16.481s16.892-7.482 16.892-16.48V7.822c0-4.32 3.516-7.823 7.854-7.823zM383.863 514.787c-7.891 0-14.394 6.44-14.394 14.515 0 4.321-3.517 7.824-7.854 7.824-4.338 0-7.854-3.503-7.854-7.824 0-16.599 13.419-30.161 30.102-30.161 16.685 0 30.103 13.562 30.103 30.161 0 16.599-13.418 30.162-30.103 30.162H348.5c-4.338 0-7.854-3.503-7.854-7.823 0-4.321 3.516-7.824 7.854-7.824h35.363c7.892 0 14.395-6.439 14.395-14.515 0-8.075-6.503-14.515-14.395-14.515zM406.885 156.367c4.338 0 7.854 3.502 7.854 7.823v82.339c0 7.811 6.4 14.211 14.379 14.211 7.978 0 14.379-6.4 14.379-14.211 0-7.812-6.401-14.212-14.379-14.212-4.338 0-7.854-3.502-7.854-7.823 0-4.32 3.516-7.823 7.854-7.823 16.579 0 30.087 13.33 30.087 29.858 0 16.527-13.508 29.857-30.087 29.857-16.58 0-30.087-13.33-30.087-29.857V164.19c0-4.321 3.516-7.823 7.854-7.823zM54.253 151.745c4.337 0 7.854 3.503 7.854 7.823v89.104c0 16.48-13.582 29.64-30.087 29.64s-30.087-13.16-30.087-29.64 13.582-29.64 30.087-29.64c4.338 0 7.854 3.503 7.854 7.823 0 4.321-3.516 7.823-7.854 7.823-8.053 0-14.379 6.375-14.379 13.994 0 7.618 6.327 13.993 14.379 13.993s14.379-6.375 14.379-13.993v-89.104c0-4.32 3.516-7.823 7.854-7.823zM187.916 159.568c0-26.11 20.943-47.492 47.042-47.492 26.1 0 47.043 21.382 47.043 47.492 0 4.321-3.516 7.823-7.854 7.823s-7.854-3.502-7.854-7.823c0-17.707-14.148-31.846-31.335-31.846-17.186 0-31.334 14.139-31.334 31.846 0 17.708 14.148 31.846 31.334 31.846h102.715c4.338 0 7.854 3.503 7.854 7.824 0 4.32-3.516 7.823-7.854 7.823H234.958c-26.099 0-47.042-21.383-47.042-47.493zM476.749 208.481c0-4.321 3.517-7.823 7.854-7.823h102.713c26.104 0 47.045 21.383 47.045 47.492 0 26.11-20.941 47.493-47.045 47.493-4.337 0-7.854-3.503-7.854-7.823 0-4.321 3.517-7.823 7.854-7.823 17.191 0 31.337-14.139 31.337-31.847 0-17.707-14.146-31.846-31.337-31.846H484.603c-4.337 0-7.854-3.502-7.854-7.823zM472.795 46.072c-15.968 0-29.057 13.057-29.057 29.343s13.089 29.343 29.057 29.343h37.922c15.97 0 29.057-13.057 29.057-29.343s-13.087-29.343-29.057-29.343h-37.922zM428.03 75.415c0-24.767 19.962-44.989 44.765-44.989h37.922c24.805 0 44.765 20.223 44.765 44.99 0 24.766-19.96 44.988-44.765 44.988h-37.922c-24.803 0-44.765-20.222-44.765-44.989zM110.898 240.183c-8.381 0-15.152 6.752-15.152 15.054v65.166c0 8.301 6.771 15.054 15.152 15.054s15.152-6.753 15.152-15.054v-65.166c0-8.302-6.771-15.054-15.152-15.054zm0 110.92c-17.031 0-30.86-13.733-30.86-30.7v-65.166c0-16.968 13.829-30.701 30.86-30.701s30.86 13.733 30.86 30.701v65.166c0 16.967-13.829 30.7-30.86 30.7zM345.986 269.839c-5.645 0-10.125 4.511-10.125 9.957v34.406c0 4.321-3.517 7.823-7.854 7.823-4.338 0-7.854-3.502-7.854-7.823v-34.406c0-14.194 11.619-25.604 25.833-25.604 14.214 0 25.834 11.41 25.834 25.604v68.812c0 14.194-11.62 25.603-25.834 25.603s-25.833-11.409-25.833-25.603v-8.313c0-4.32 3.516-7.823 7.854-7.823 4.337 0 7.854 3.503 7.854 7.823v8.313c0 5.446 4.48 9.957 10.125 9.957 5.646 0 10.126-4.511 10.126-9.957v-68.812c0-5.446-4.48-9.957-10.126-9.957z" />
        <path d="M330.133 16.031c-12.873 0-23.272 10.361-23.272 23.097v94.142c0 12.736 10.399 23.097 23.272 23.097s23.272-10.361 23.272-23.097v-2.999c0-4.321 3.517-7.823 7.854-7.823 4.338 0 7.854 3.502 7.854 7.823v2.999c0 21.417-17.472 38.743-38.98 38.743-21.508 0-38.98-17.326-38.98-38.743V39.128c0-21.417 17.472-38.743 38.98-38.743 21.508 0 38.98 17.326 38.98 38.743v.923c0 4.32-3.516 7.823-7.854 7.823-4.337 0-7.854-3.503-7.854-7.823v-.923c0-12.736-10.399-23.097-23.272-23.097zM1.933 398.355c0-17.501 14.232-31.702 31.803-31.702h1.86c4.338 0 7.855 3.503 7.855 7.823 0 4.321-3.517 7.823-7.854 7.823h-1.86c-8.883 0-16.096 7.181-16.096 16.056s7.214 16.056 16.096 16.056h55.339c8.882 0 16.095-7.181 16.095-16.056s-7.213-16.056-16.095-16.056h-1.86c-4.338 0-7.854-3.502-7.854-7.823 0-4.32 3.516-7.823 7.853-7.823h1.86c17.572 0 31.804 14.201 31.804 31.702s-14.232 31.702-31.803 31.702h-55.34c-17.571 0-31.803-14.201-31.803-31.702zM298.234 254.192c4.338 0 7.854 3.503 7.854 7.823v89.213c0 22.279 18.316 40.459 41.059 40.459s41.058-18.18 41.058-40.459V330.15c0-4.32 3.516-7.823 7.854-7.823s7.854 3.503 7.854 7.823v21.078c0 31.053-25.482 56.106-56.766 56.106-31.285 0-56.767-25.053-56.767-56.106v-89.213c0-4.32 3.517-7.823 7.854-7.823zM192.169 412.99c0-4.32 3.517-7.823 7.854-7.823h80.348c34.959 0 63.223 28.374 63.223 63.283 0 34.907-28.264 63.284-63.223 63.284H256.2c-4.338 0-7.854-3.503-7.854-7.823 0-4.321 3.516-7.824 7.854-7.824h24.171c26.201 0 47.515-21.288 47.515-47.637 0-26.35-21.314-47.637-47.515-47.637h-80.348c-4.337 0-7.854-3.502-7.854-7.823zM215.417 239.413c-8.412 0-15.274 6.82-15.274 15.285 0 8.464 6.862 15.285 15.274 15.285h19.018c4.338 0 7.854 3.503 7.854 7.823 0 4.321-3.516 7.823-7.854 7.823h-19.018c-17.134 0-30.982-13.871-30.982-30.931 0-17.06 13.848-30.932 30.982-30.932h38.037c17.133 0 30.981 13.872 30.981 30.932v2.053c0 15.926-12.928 28.878-28.927 28.878-4.338 0-7.854-3.502-7.854-7.823 0-4.32 3.516-7.823 7.854-7.823 7.278 0 13.219-5.901 13.219-13.232v-2.053c0-8.465-6.861-15.285-15.273-15.285h-38.037zM373.125 164.768c0-18.458 15.775-32.665 34.27-32.665h43.446c18.494 0 34.27 14.207 34.27 32.665s-15.776 32.664-34.27 32.664h-21.723c-4.338 0-7.854-3.502-7.854-7.823 0-4.32 3.516-7.823 7.854-7.823h21.723c10.682 0 18.562-8.038 18.562-17.018 0-8.981-7.88-17.019-18.562-17.019h-43.446c-10.683 0-18.562 8.038-18.562 17.019 0 4.32-3.517 7.823-7.854 7.823-4.338 0-7.854-3.503-7.854-7.823zM149.25 145.703c0-37.258 30.198-67.52 67.523-67.52h52.075c4.338 0 7.854 3.503 7.854 7.823 0 4.321-3.516 7.824-7.854 7.824h-52.075c-28.584 0-51.815 23.192-51.815 51.873 0 4.321-3.516 7.823-7.854 7.823s-7.854-3.502-7.854-7.823zM546.082 343.545c4.338 0 7.854 3.502 7.854 7.823v143.241c0 7.766 6.384 14.161 14.379 14.161 7.995 0 14.379-6.395 14.379-14.161 0-7.765-6.384-14.16-14.379-14.16-4.338 0-7.854-3.503-7.854-7.824 0-4.32 3.516-7.823 7.854-7.823 16.563 0 30.087 13.293 30.087 29.807s-13.524 29.807-30.087 29.807c-16.563 0-30.087-13.293-30.087-29.807V351.368c0-4.321 3.517-7.823 7.854-7.823zM442.316 453.935c-17.911 0-32.604 14.68-32.604 33.002 0 4.321-3.516 7.823-7.854 7.823-4.337 0-7.853-3.502-7.853-7.823 0-26.771 21.534-48.648 48.311-48.648h71.287c4.337 0 7.854 3.503 7.854 7.823 0 4.321-3.517 7.823-7.854 7.823h-71.287zM380.979 177.549c4.338 0 7.854 3.503 7.854 7.824 0 29.822-24.202 54.039-54.108 54.039h-38.037c-4.338 0-7.854-3.502-7.854-7.823 0-4.32 3.516-7.823 7.854-7.823h38.037c21.185 0 38.4-17.166 38.4-38.393 0-4.321 3.517-7.824 7.854-7.824zM518.629 344.315c4.338 0 7.854 3.503 7.854 7.823v20.703c0 25.221-20.533 45.662-45.858 45.662h-29.661c-4.338 0-7.854-3.503-7.854-7.824 0-4.32 3.516-7.823 7.854-7.823h29.661c16.656 0 30.15-13.441 30.15-30.015v-20.703c0-4.32 3.516-7.823 7.854-7.823zM507.682 291.671c0-27.863 22.489-50.573 50.384-50.573h32.482c4.337 0 7.854 3.502 7.854 7.823 0 4.32-3.517 7.823-7.854 7.823h-32.482c-19.085 0-34.676 15.57-34.676 34.927 0 4.321-3.516 7.823-7.854 7.823-4.337 0-7.854-3.502-7.854-7.823zM136.954 473.401c.885 4.23-1.84 8.374-6.086 9.255C112.534 486.463 100 500.715 100 516.547v35.093c0 4.321-3.517 7.824-7.854 7.824-4.338 0-7.854-3.503-7.854-7.824v-35.093c0-24.579 19.152-44.18 43.37-49.208 4.247-.882 8.407 1.833 9.292 6.062zM25.06 125.556c4.338 0 7.854 3.502 7.854 7.823v70.865c0 4.321-3.516 7.824-7.854 7.824-4.337 0-7.854-3.503-7.854-7.824v-70.865c0-4.321 3.517-7.823 7.854-7.823zM168.583 551.448c0-4.321 3.516-7.823 7.854-7.823H322.98c4.338 0 7.854 3.502 7.854 7.823 0 4.321-3.516 7.823-7.854 7.823H176.437c-4.338 0-7.854-3.502-7.854-7.823zM428.731 288.47c4.338 0 7.854 3.502 7.854 7.823v58.541c0 4.321-3.516 7.823-7.854 7.823-4.337 0-7.854-3.502-7.854-7.823v-58.541c0-4.321 3.517-7.823 7.854-7.823zM369.186 447.532c4.338 0 7.854 3.503 7.854 7.824v23.878c0 4.321-3.516 7.823-7.854 7.823-4.337 0-7.854-3.502-7.854-7.823v-23.878c0-4.321 3.517-7.824 7.854-7.824z" />
        <path d="M484.603 226.077c4.338 0 7.854 3.503 7.854 7.823v54.817c0 13.007-10.651 23.435-23.655 23.435-4.446 0-7.946 3.547-7.946 7.795v3.239c0 4.248 3.5 7.795 7.946 7.795 13.008 0 23.655 10.438 23.655 23.441v3.587c0 14.983-12.272 27.027-27.283 27.027h-24.813c-4.337 0-7.854-3.503-7.854-7.823 0-4.321 3.517-7.823 7.854-7.823h24.813c6.45 0 11.575-5.153 11.575-11.381v-3.587c0-4.248-3.5-7.795-7.947-7.795-13.007 0-23.654-10.438-23.654-23.441v-3.239c0-13.003 10.647-23.441 23.654-23.441 4.45 0 7.947-3.544 7.947-7.789V233.9c0-4.32 3.516-7.823 7.854-7.823zm-58.787 155.958c4.338 0 7.854 3.502 7.854 7.823 0 25.614-20.868 46.361-46.591 46.361h-10.353c-4.338 0-7.854-3.503-7.854-7.823 0-4.321 3.516-7.823 7.854-7.823h10.353c17.065 0 30.883-13.761 30.883-30.715 0-4.321 3.516-7.823 7.854-7.823zM492.602 159.338c0-15.276 12.464-27.62 27.789-27.62 15.322 0 27.785 12.345 27.785 27.62v6.471c0 6.674 5.456 12.126 12.234 12.126 6.773 0 12.23-5.451 12.23-12.126v-7.812c0-4.32 3.517-7.823 7.854-7.823 4.338 0 7.854 3.503 7.854 7.823v7.812c0 15.359-12.533 27.772-27.938 27.772-15.408 0-27.942-12.411-27.942-27.772v-6.471c0-6.592-5.388-11.974-12.077-11.974-6.694 0-12.081 5.383-12.081 11.974v7.964c0 4.32-3.516 7.823-7.854 7.823-4.337 0-7.854-3.503-7.854-7.823v-7.964zM457.151 482.821c-11.254 0-20.372 9.084-20.372 20.279v20.438c0 11.195 9.118 20.279 20.372 20.279 11.253 0 20.372-9.084 20.372-20.279V503.1c0-11.195-9.119-20.279-20.372-20.279zm0 76.643c-19.924 0-36.08-16.083-36.08-35.926V503.1c0-19.843 16.156-35.926 36.08-35.926 19.921 0 36.08 16.083 36.08 35.926v20.438c0 19.843-16.159 35.926-36.08 35.926zM1224.86 384.755c4.34 0 7.86 3.502 7.86 7.823 0 8.08 6.5 14.515 14.37 14.515 7.88 0 14.38-6.435 14.38-14.515 0-4.321 3.52-7.823 7.86-7.823 4.33 0 7.85 3.502 7.85 7.823 0 16.594-13.41 30.161-30.09 30.161s-30.08-13.567-30.08-30.161c0-4.321 3.51-7.823 7.85-7.823zM1269.33 19.498c-10.99 0-19.99 8.947-19.99 20.1 0 11.151 9 20.099 19.99 20.099 4.33 0 7.85 3.502 7.85 7.823 0 4.32-3.52 7.823-7.85 7.823-19.77 0-35.7-16.055-35.7-35.746 0-19.69 15.93-35.746 35.7-35.746 4.33 0 7.85 3.503 7.85 7.824 0 4.32-3.52 7.823-7.85 7.823zM914.374.385c4.338 0 7.854 3.503 7.854 7.823v26.154c0 17.09-13.891 30.967-31.053 30.967s-31.054-13.876-31.054-30.967c0-4.321 3.517-7.824 7.854-7.824 4.338 0 7.854 3.503 7.854 7.824 0 8.473 6.882 15.321 15.346 15.321 8.463 0 15.345-6.848 15.345-15.321V8.208c0-4.32 3.517-7.823 7.854-7.823zM703.737 455.861c-24.582 0-44.436 19.728-44.436 43.978s19.854 43.978 44.436 43.978c4.337 0 7.854 3.503 7.854 7.824 0 4.32-3.517 7.823-7.854 7.823-33.176 0-60.144-26.653-60.144-59.625s26.968-59.624 60.144-59.624h47.854c4.338 0 7.854 3.502 7.854 7.823 0 4.32-3.516 7.823-7.854 7.823h-47.854z" />
        <path d="M700.545 490.524c-5.518 0-9.538 4.242-9.538 8.93s4.02 8.93 9.538 8.93c4.338 0 7.854 3.503 7.854 7.824 0 4.32-3.516 7.823-7.854 7.823-13.693 0-25.246-10.758-25.246-24.577 0-13.819 11.553-24.577 25.246-24.577h18.567c4.338 0 7.854 3.503 7.854 7.823 0 4.321-3.516 7.824-7.854 7.824h-18.567zM642.82 34.4c0-18.959 15.745-34.013 34.776-34.013h75.929c4.337 0 7.854 3.502 7.854 7.823 0 4.32-3.517 7.823-7.854 7.823h-75.929c-10.707 0-19.068 8.396-19.068 18.366 0 4.32-3.517 7.823-7.854 7.823-4.338 0-7.854-3.502-7.854-7.823zM1222.66 43.256c0-23.273-18.99-42.1-42.36-42.1h-97.34c-4.34 0-7.86 3.502-7.86 7.823 0 4.32 3.52 7.823 7.86 7.823h97.34c14.74 0 26.65 11.865 26.65 26.454 0 4.32 3.52 7.823 7.86 7.823s7.85-3.502 7.85-7.823zM1215.07 120.931c0-17.055 13.95-30.808 31.06-30.808s31.05 13.753 31.05 30.808v64.827c0 4.32-3.52 7.823-7.85 7.823-4.34 0-7.86-3.503-7.86-7.823v-64.827c0-8.334-6.83-15.162-15.34-15.162-8.52 0-15.35 6.828-15.35 15.162v10.035c0 4.32-3.51 7.823-7.85 7.823s-7.86-3.503-7.86-7.823v-10.035zM801.378 226.462c4.337 0 7.854 3.503 7.854 7.823v24.759c0 25.846 21.008 46.783 46.904 46.783h21.81c22.543 0 40.802 18.221 40.802 40.679 0 4.321-3.516 7.823-7.854 7.823s-7.854-3.502-7.854-7.823c0-13.834-11.244-25.033-25.094-25.033h-21.81c-34.588 0-62.612-27.959-62.612-62.429v-24.759c0-4.32 3.516-7.823 7.854-7.823zm.617 184.601c0-21.686 17.733-39.196 39.519-39.196h69.381c4.337 0 7.854 3.502 7.854 7.823 0 4.32-3.517 7.823-7.854 7.823h-69.381c-13.19 0-23.811 10.583-23.811 23.55s10.621 23.551 23.811 23.551h28.636c4.337 0 7.854 3.502 7.854 7.823 0 4.32-3.517 7.823-7.854 7.823h-28.636c-21.786 0-39.519-17.51-39.519-39.197zm68.36 56.131c4.338 0 7.854 3.502 7.854 7.823 0 22.293-18.124 40.379-40.5 40.379h-49.33c-7.855 0-14.241 6.354-14.241 14.213 0 7.853 6.385 14.208 14.241 14.208h4.136c4.338 0 7.854 3.503 7.854 7.824 0 4.32-3.516 7.823-7.854 7.823h-4.136c-16.549 0-29.949-13.378-29.949-29.855 0-16.481 13.399-29.859 29.949-29.859h49.33c13.684 0 24.792-11.064 24.792-24.733 0-4.321 3.516-7.823 7.854-7.823zM854.709 159.183c0-12.829 10.441-23.229 23.32-23.229 12.88 0 23.32 10.4 23.32 23.229 0 12.829-10.44 23.229-23.32 23.229-12.879 0-23.32-10.4-23.32-23.229zm23.32-7.582c-4.204 0-7.612 3.394-7.612 7.582s3.408 7.582 7.612 7.582c4.204 0 7.612-3.394 7.612-7.582s-3.408-7.582-7.612-7.582zM890.28 468.258c0-16.615 13.622-29.969 30.281-29.969s30.28 13.354 30.28 29.969c0 16.615-13.621 29.968-30.28 29.968s-30.281-13.353-30.281-29.968zm30.281-14.323c-8.113 0-14.573 6.476-14.573 14.323 0 7.846 6.46 14.322 14.573 14.322 8.112 0 14.572-6.476 14.572-14.322 0-7.847-6.46-14.323-14.572-14.323zM689.605 106.804c0-17.721 14.422-32.087 32.213-32.087s32.214 14.366 32.214 32.087c0 17.721-14.423 32.087-32.214 32.087-17.791 0-32.213-14.366-32.213-32.087zm32.213-16.44c-9.115 0-16.505 7.36-16.505 16.44 0 9.08 7.39 16.441 16.505 16.441 9.116 0 16.506-7.361 16.506-16.441 0-9.08-7.39-16.44-16.506-16.44z" />
        <path d="M659.833 106.226c0-33.885 27.945-61.165 62.179-61.165s62.179 27.28 62.179 61.165c0 33.886-27.945 61.165-62.179 61.165-4.338 0-7.854-3.502-7.854-7.823 0-4.32 3.516-7.823 7.854-7.823 25.772 0 46.471-20.485 46.471-45.519s-20.699-45.518-46.471-45.518c-25.772 0-46.472 20.484-46.472 45.518 0 4.321-3.516 7.824-7.853 7.824-4.338 0-7.854-3.503-7.854-7.824zM1219.85 436.381c1.12-4.173 5.43-6.647 9.62-5.527 34.6 9.252 54.77 45.117 45.43 79.893-9.34 34.782-44.79 55.788-79.39 46.538-34.6-9.253-54.77-45.119-45.43-79.896 1.12-4.174 5.42-6.652 9.61-5.536 4.19 1.116 6.68 5.405 5.56 9.579-7.17 26.702 8.37 53.799 34.33 60.742 25.95 6.937 52.98-8.771 60.14-35.469 7.17-26.703-8.37-53.798-34.32-60.74-4.19-1.12-6.68-5.411-5.55-9.584zM797.555 350.702c11.066-8.586 24.742-13.705 39.566-13.705h40.521c4.338 0 7.854 3.503 7.854 7.823 0 4.321-3.516 7.824-7.854 7.824h-40.521c-11.106 0-21.427 3.817-29.912 10.401-3.422 2.656-8.357 2.045-11.023-1.363a7.805 7.805 0 0 1 1.369-10.98zm-7.434 18.636c3.783 2.115 5.127 6.884 3.003 10.652-4.91 8.71-7.772 19.018-7.772 30.116 0 32.203 23.771 57.068 51.625 57.068 4.338 0 7.854 3.503 7.854 7.824 0 4.32-3.516 7.823-7.854 7.823-37.844 0-67.333-33.241-67.333-72.715 0-13.791 3.559-26.736 9.784-37.777 2.123-3.767 6.911-5.106 10.693-2.991zM747.604 189.417c0-16.552 13.47-29.969 30.087-29.969 4.337 0 7.854 3.502 7.854 7.823 0 4.321-3.517 7.823-7.854 7.823-7.942 0-14.379 6.412-14.379 14.323 0 7.91 6.437 14.322 14.379 14.322 7.941 0 14.378-6.412 14.378-14.322v-22.146c0-4.321 3.517-7.823 7.854-7.823 4.338 0 7.854 3.502 7.854 7.823v22.146c0 16.551-13.47 29.968-30.086 29.968-16.617 0-30.087-13.417-30.087-29.968zM776.603 8.208c0-4.32 3.516-7.823 7.854-7.823h29.386c20.616 0 37.24 16.742 37.24 37.287 0 20.544-16.624 37.286-37.24 37.286-20.615 0-37.24-16.742-37.24-37.286 0-4.321 3.516-7.824 7.854-7.824s7.854 3.503 7.854 7.824c0 12 9.689 21.64 21.532 21.64s21.532-9.64 21.532-21.64-9.689-21.64-21.532-21.64h-29.386c-4.338 0-7.854-3.503-7.854-7.824zM678.32 298.724c-9.943 0-17.859 7.921-17.859 17.516 0 9.595 7.916 17.515 17.859 17.515 4.337 0 7.854 3.503 7.854 7.824 0 4.32-3.517 7.823-7.854 7.823-18.459 0-33.567-14.768-33.567-33.162s15.108-33.162 33.567-33.162c18.458 0 33.566 14.768 33.566 33.162v77.493c0 4.321-3.516 7.823-7.854 7.823-4.337 0-7.854-3.502-7.854-7.823V316.24c0-9.595-7.916-17.516-17.858-17.516zM1153.59 319.401c0-4.32 3.52-7.823 7.86-7.823h77.72c17.27 0 31.05 14.144 31.05 31.317 0 17.173-13.78 31.316-31.05 31.316-17.27 0-31.06-14.141-31.06-31.316 0-4.321 3.52-7.823 7.85-7.823 4.34 0 7.86 3.502 7.86 7.823 0 8.775 6.99 15.67 15.35 15.67 8.35 0 15.34-6.893 15.34-15.67 0-8.777-6.99-15.671-15.34-15.671h-77.72c-4.34 0-7.86-3.502-7.86-7.823zM1048.93 0c4.34 0 7.85 3.503 7.85 7.823v78.143c0 17.847-14.7 32.127-32.6 32.127-17.9 0-32.595-14.28-32.595-32.127s14.695-32.127 32.595-32.127c4.34 0 7.86 3.503 7.86 7.823s-3.52 7.823-7.86 7.823c-9.43 0-16.89 7.483-16.89 16.481 0 8.999 7.46 16.481 16.89 16.481 9.44 0 16.9-7.482 16.9-16.48V7.822c0-4.32 3.51-7.823 7.85-7.823zM1026.68 514.787c-7.89 0-14.39 6.44-14.39 14.515 0 4.321-3.52 7.824-7.86 7.824-4.33 0-7.849-3.503-7.849-7.824 0-16.599 13.419-30.161 30.099-30.161 16.69 0 30.11 13.562 30.11 30.161 0 16.599-13.42 30.162-30.11 30.162h-35.36c-4.338 0-7.854-3.503-7.854-7.823 0-4.321 3.516-7.824 7.854-7.824h35.36c7.89 0 14.4-6.439 14.4-14.515 0-8.075-6.51-14.515-14.4-14.515zM1049.7 156.367c4.34 0 7.86 3.502 7.86 7.823v82.339c0 7.811 6.4 14.211 14.38 14.211s14.38-6.4 14.38-14.211c0-7.812-6.4-14.212-14.38-14.212-4.34 0-7.86-3.502-7.86-7.823 0-4.32 3.52-7.823 7.86-7.823 16.58 0 30.08 13.33 30.08 29.858 0 16.527-13.5 29.857-30.08 29.857s-30.09-13.33-30.09-29.857V164.19c0-4.321 3.52-7.823 7.85-7.823zM697.073 151.745c4.337 0 7.854 3.503 7.854 7.823v89.104c0 16.48-13.582 29.64-30.087 29.64-16.506 0-30.087-13.16-30.087-29.64s13.581-29.64 30.087-29.64c4.337 0 7.854 3.503 7.854 7.823 0 4.321-3.517 7.823-7.854 7.823-8.053 0-14.379 6.375-14.379 13.994 0 7.618 6.326 13.993 14.379 13.993 8.052 0 14.379-6.375 14.379-13.993v-89.104c0-4.32 3.516-7.823 7.854-7.823zM830.735 159.568c0-26.11 20.943-47.492 47.043-47.492 26.1 0 47.043 21.382 47.043 47.492 0 4.321-3.517 7.823-7.854 7.823-4.338 0-7.854-3.502-7.854-7.823 0-17.707-14.149-31.846-31.335-31.846s-31.335 14.139-31.335 31.846c0 17.708 14.149 31.846 31.335 31.846h102.715c4.338 0 7.854 3.503 7.854 7.824 0 4.32-3.516 7.823-7.854 7.823H877.778c-26.1 0-47.043-21.383-47.043-47.493zM1119.57 208.481c0-4.321 3.52-7.823 7.85-7.823h102.72c26.1 0 47.04 21.383 47.04 47.492 0 26.11-20.94 47.493-47.04 47.493-4.34 0-7.86-3.503-7.86-7.823 0-4.321 3.52-7.823 7.86-7.823 17.19 0 31.33-14.139 31.33-31.847 0-17.707-14.14-31.846-31.33-31.846h-102.72c-4.33 0-7.85-3.502-7.85-7.823zM1115.61 46.072c-15.96 0-29.05 13.057-29.05 29.343s13.09 29.343 29.05 29.343h37.93c15.97 0 29.05-13.057 29.05-29.343s-13.08-29.343-29.05-29.343h-37.93zm-44.76 29.343c0-24.767 19.96-44.989 44.76-44.989h37.93c24.8 0 44.76 20.223 44.76 44.99 0 24.766-19.96 44.988-44.76 44.988h-37.93c-24.8 0-44.76-20.222-44.76-44.989zM753.718 240.183c-8.381 0-15.152 6.752-15.152 15.054v65.166c0 8.301 6.771 15.054 15.152 15.054s15.152-6.753 15.152-15.054v-65.166c0-8.302-6.772-15.054-15.152-15.054zm0 110.92c-17.031 0-30.86-13.733-30.86-30.7v-65.166c0-16.968 13.829-30.701 30.86-30.701s30.86 13.733 30.86 30.701v65.166c0 16.967-13.829 30.7-30.86 30.7zM988.806 269.839c-5.646 0-10.126 4.511-10.126 9.957v34.406c0 4.321-3.516 7.823-7.854 7.823-4.337 0-7.854-3.502-7.854-7.823v-34.406c0-14.194 11.62-25.604 25.834-25.604s25.834 11.41 25.834 25.604v68.812c0 14.194-11.62 25.603-25.834 25.603s-25.834-11.409-25.834-25.603v-8.313c0-4.32 3.517-7.823 7.854-7.823 4.338 0 7.854 3.503 7.854 7.823v8.313c0 5.446 4.48 9.957 10.126 9.957 5.646 0 10.126-4.511 10.126-9.957v-68.812c0-5.446-4.48-9.957-10.126-9.957z" />
        <path d="M972.953 16.031c-12.873 0-23.272 10.361-23.272 23.097v94.142c0 12.736 10.399 23.097 23.272 23.097s23.272-10.361 23.272-23.097v-2.999c0-4.321 3.516-7.823 7.855-7.823 4.34 0 7.85 3.502 7.85 7.823v2.999c0 21.417-17.469 38.743-38.977 38.743-21.508 0-38.98-17.326-38.98-38.743V39.128c0-21.417 17.472-38.743 38.98-38.743 21.508 0 38.977 17.326 38.977 38.743v.923c0 4.32-3.51 7.823-7.85 7.823-4.339 0-7.855-3.503-7.855-7.823v-.923c0-12.736-10.399-23.097-23.272-23.097zM644.753 398.355c0-17.501 14.231-31.702 31.803-31.702h1.86c4.338 0 7.854 3.503 7.854 7.823 0 4.321-3.516 7.823-7.854 7.823h-1.86c-8.882 0-16.095 7.181-16.095 16.056s7.213 16.056 16.095 16.056h55.339c8.882 0 16.096-7.181 16.096-16.056s-7.214-16.056-16.096-16.056h-1.86c-4.337 0-7.854-3.502-7.854-7.823 0-4.32 3.517-7.823 7.854-7.823h1.86c17.572 0 31.804 14.201 31.804 31.702s-14.232 31.702-31.804 31.702h-55.339c-17.572 0-31.803-14.201-31.803-31.702zM941.054 254.192c4.338 0 7.854 3.503 7.854 7.823v89.213c0 22.279 18.315 40.459 41.058 40.459 22.744 0 41.054-18.18 41.054-40.459V330.15c0-4.32 3.52-7.823 7.86-7.823s7.85 3.503 7.85 7.823v21.078c0 31.053-25.48 56.106-56.764 56.106-31.284 0-56.766-25.053-56.766-56.106v-89.213c0-4.32 3.516-7.823 7.854-7.823zM834.989 412.99c0-4.32 3.516-7.823 7.854-7.823h80.348c34.958 0 63.223 28.374 63.223 63.283 0 34.907-28.264 63.284-63.223 63.284H899.02c-4.338 0-7.854-3.503-7.854-7.823 0-4.321 3.516-7.824 7.854-7.824h24.171c26.2 0 47.515-21.288 47.515-47.637 0-26.35-21.314-47.637-47.515-47.637h-80.348c-4.338 0-7.854-3.502-7.854-7.823zM858.236 239.413c-8.412 0-15.273 6.82-15.273 15.285 0 8.464 6.861 15.285 15.273 15.285h19.019c4.337 0 7.854 3.503 7.854 7.823 0 4.321-3.517 7.823-7.854 7.823h-19.019c-17.133 0-30.981-13.871-30.981-30.931 0-17.06 13.848-30.932 30.981-30.932h38.037c17.134 0 30.982 13.872 30.982 30.932v2.053c0 15.926-12.928 28.878-28.927 28.878-4.338 0-7.854-3.502-7.854-7.823 0-4.32 3.516-7.823 7.854-7.823 7.277 0 13.219-5.901 13.219-13.232v-2.053c0-8.465-6.862-15.285-15.274-15.285h-38.037zM1015.94 164.768c0-18.458 15.78-32.665 34.27-32.665h43.45c18.49 0 34.27 14.207 34.27 32.665s-15.78 32.664-34.27 32.664h-21.72c-4.34 0-7.86-3.502-7.86-7.823 0-4.32 3.52-7.823 7.86-7.823h21.72c10.68 0 18.56-8.038 18.56-17.018 0-8.981-7.88-17.019-18.56-17.019h-43.45c-10.68 0-18.56 8.038-18.56 17.019 0 4.32-3.51 7.823-7.85 7.823s-7.86-3.503-7.86-7.823zM792.07 145.703c0-37.258 30.198-67.52 67.522-67.52h52.076c4.338 0 7.854 3.503 7.854 7.823 0 4.321-3.516 7.824-7.854 7.824h-52.076c-28.584 0-51.814 23.192-51.814 51.873 0 4.321-3.517 7.823-7.854 7.823-4.338 0-7.854-3.502-7.854-7.823zM1188.9 343.545c4.34 0 7.86 3.502 7.86 7.823v143.241c0 7.766 6.38 14.161 14.37 14.161 8 0 14.38-6.395 14.38-14.161 0-7.765-6.38-14.16-14.38-14.16-4.33 0-7.85-3.503-7.85-7.824 0-4.32 3.52-7.823 7.85-7.823 16.57 0 30.09 13.293 30.09 29.807s-13.52 29.807-30.09 29.807c-16.56 0-30.08-13.293-30.08-29.807V351.368c0-4.321 3.51-7.823 7.85-7.823zM1085.14 453.935c-17.91 0-32.61 14.68-32.61 33.002 0 4.321-3.51 7.823-7.85 7.823s-7.86-3.502-7.86-7.823c0-26.771 21.54-48.648 48.32-48.648h71.28c4.34 0 7.86 3.503 7.86 7.823 0 4.321-3.52 7.823-7.86 7.823h-71.28zM1023.8 177.549c4.34 0 7.85 3.503 7.85 7.824 0 29.822-24.2 54.039-54.106 54.039h-38.036c-4.338 0-7.854-3.502-7.854-7.823 0-4.32 3.516-7.823 7.854-7.823h38.036c21.185 0 38.396-17.166 38.396-38.393 0-4.321 3.52-7.824 7.86-7.824zM1161.45 344.315c4.34 0 7.85 3.503 7.85 7.823v20.703c0 25.221-20.53 45.662-45.86 45.662h-29.66c-4.33 0-7.85-3.503-7.85-7.824 0-4.32 3.52-7.823 7.85-7.823h29.66c16.66 0 30.15-13.441 30.15-30.015v-20.703c0-4.32 3.52-7.823 7.86-7.823zM1150.5 291.671c0-27.863 22.49-50.573 50.39-50.573h32.48c4.34 0 7.85 3.502 7.85 7.823 0 4.32-3.51 7.823-7.85 7.823h-32.48c-19.09 0-34.68 15.57-34.68 34.927 0 4.321-3.52 7.823-7.85 7.823-4.34 0-7.86-3.502-7.86-7.823zM779.773 473.401c.885 4.23-1.839 8.374-6.086 9.255-18.334 3.807-30.868 18.059-30.868 33.891v35.093c0 4.321-3.516 7.824-7.854 7.824-4.337 0-7.854-3.503-7.854-7.824v-35.093c0-24.579 19.153-44.18 43.371-49.208 4.246-.882 8.406 1.833 9.291 6.062zM667.88 125.556c4.338 0 7.854 3.502 7.854 7.823v70.865c0 4.321-3.516 7.824-7.854 7.824s-7.854-3.503-7.854-7.824v-70.865c0-4.321 3.516-7.823 7.854-7.823zM811.403 551.448c0-4.321 3.516-7.823 7.854-7.823H965.8c4.338 0 7.854 3.502 7.854 7.823 0 4.321-3.516 7.823-7.854 7.823H819.257c-4.338 0-7.854-3.502-7.854-7.823zM1071.55 288.47c4.34 0 7.86 3.502 7.86 7.823v58.541c0 4.321-3.52 7.823-7.86 7.823s-7.85-3.502-7.85-7.823v-58.541c0-4.321 3.51-7.823 7.85-7.823zM1012.01 447.532c4.33 0 7.85 3.503 7.85 7.824v23.878c0 4.321-3.52 7.823-7.85 7.823-4.34 0-7.86-3.502-7.86-7.823v-23.878c0-4.321 3.52-7.824 7.86-7.824z" />
        <path d="M1127.42 226.077c4.34 0 7.86 3.503 7.86 7.823v54.817c0 13.007-10.65 23.435-23.66 23.435-4.44 0-7.94 3.547-7.94 7.795v3.239c0 4.248 3.5 7.795 7.94 7.795 13.01 0 23.66 10.438 23.66 23.441v3.587c0 14.983-12.28 27.027-27.29 27.027h-24.81c-4.34 0-7.85-3.503-7.85-7.823 0-4.321 3.51-7.823 7.85-7.823h24.81c6.45 0 11.58-5.153 11.58-11.381v-3.587c0-4.248-3.5-7.795-7.95-7.795-13.01 0-23.65-10.438-23.65-23.441v-3.239c0-13.003 10.64-23.441 23.65-23.441 4.45 0 7.95-3.544 7.95-7.789V233.9c0-4.32 3.52-7.823 7.85-7.823zm-58.78 155.958c4.33 0 7.85 3.502 7.85 7.823 0 25.614-20.87 46.361-46.59 46.361h-10.35c-4.34 0-7.86-3.503-7.86-7.823 0-4.321 3.52-7.823 7.86-7.823h10.35c17.06 0 30.88-13.761 30.88-30.715 0-4.321 3.52-7.823 7.86-7.823zM1135.42 159.338c0-15.276 12.47-27.62 27.79-27.62 15.32 0 27.79 12.345 27.79 27.62v6.471c0 6.674 5.45 12.126 12.23 12.126 6.77 0 12.23-5.451 12.23-12.126v-7.812c0-4.32 3.52-7.823 7.85-7.823 4.34 0 7.86 3.503 7.86 7.823v7.812c0 15.359-12.53 27.772-27.94 27.772-15.41 0-27.94-12.411-27.94-27.772v-6.471c0-6.592-5.39-11.974-12.08-11.974s-12.08 5.383-12.08 11.974v7.964c0 4.32-3.52 7.823-7.85 7.823-4.34 0-7.86-3.503-7.86-7.823v-7.964zM1099.97 482.821c-11.25 0-20.37 9.084-20.37 20.279v20.438c0 11.195 9.12 20.279 20.37 20.279 11.25 0 20.37-9.084 20.37-20.279V503.1c0-11.195-9.12-20.279-20.37-20.279zm0 76.643c-19.92 0-36.08-16.083-36.08-35.926V503.1c0-19.843 16.16-35.926 36.08-35.926 19.92 0 36.08 16.083 36.08 35.926v20.438c0 19.843-16.16 35.926-36.08 35.926zM1867.68 384.755c4.34 0 7.85 3.502 7.85 7.823 0 8.08 6.51 14.515 14.38 14.515 7.88 0 14.38-6.435 14.38-14.515 0-4.321 3.52-7.823 7.86-7.823 4.33 0 7.85 3.502 7.85 7.823 0 16.594-13.41 30.161-30.09 30.161s-30.08-13.567-30.08-30.161c0-4.321 3.51-7.823 7.85-7.823zM1912.14 19.498c-10.98 0-19.98 8.947-19.98 20.1 0 11.151 9 20.099 19.98 20.099 4.34 0 7.86 3.502 7.86 7.823 0 4.32-3.52 7.823-7.86 7.823-19.76 0-35.69-16.055-35.69-35.746 0-19.69 15.93-35.746 35.69-35.746 4.34 0 7.86 3.503 7.86 7.824 0 4.32-3.52 7.823-7.86 7.823zM1557.19.385c4.34 0 7.86 3.503 7.86 7.823v26.154c0 17.09-13.89 30.967-31.06 30.967-17.16 0-31.05-13.876-31.05-30.967 0-4.321 3.52-7.824 7.85-7.824 4.34 0 7.86 3.503 7.86 7.824 0 8.473 6.88 15.321 15.34 15.321 8.47 0 15.35-6.848 15.35-15.321V8.208c0-4.32 3.52-7.823 7.85-7.823zM1346.56 455.861c-24.59 0-44.44 19.728-44.44 43.978s19.85 43.978 44.44 43.978c4.33 0 7.85 3.503 7.85 7.824 0 4.32-3.52 7.823-7.85 7.823-33.18 0-60.15-26.653-60.15-59.625s26.97-59.624 60.15-59.624h47.85c4.34 0 7.85 3.502 7.85 7.823 0 4.32-3.51 7.823-7.85 7.823h-47.85z" />
        <path d="M1343.36 490.524c-5.51 0-9.53 4.242-9.53 8.93s4.02 8.93 9.53 8.93c4.34 0 7.86 3.503 7.86 7.824 0 4.32-3.52 7.823-7.86 7.823-13.69 0-25.24-10.758-25.24-24.577 0-13.819 11.55-24.577 25.24-24.577h18.57c4.34 0 7.86 3.503 7.86 7.823 0 4.321-3.52 7.824-7.86 7.824h-18.57zM1285.64 34.4c0-18.959 15.74-34.013 34.77-34.013h75.93c4.34 0 7.86 3.502 7.86 7.823 0 4.32-3.52 7.823-7.86 7.823h-75.93c-10.7 0-19.06 8.396-19.06 18.366 0 4.32-3.52 7.823-7.86 7.823-4.33 0-7.85-3.502-7.85-7.823zM1865.48 43.256c0-23.273-18.99-42.1-42.37-42.1h-97.33c-4.34 0-7.86 3.502-7.86 7.823 0 4.32 3.52 7.823 7.86 7.823h97.33c14.75 0 26.66 11.865 26.66 26.454 0 4.32 3.52 7.823 7.86 7.823 4.33 0 7.85-3.502 7.85-7.823zM1857.89 120.931c0-17.055 13.95-30.808 31.06-30.808 17.1 0 31.05 13.753 31.05 30.808v64.827c0 4.32-3.52 7.823-7.85 7.823-4.34 0-7.86-3.503-7.86-7.823v-64.827c0-8.334-6.83-15.162-15.34-15.162-8.52 0-15.35 6.828-15.35 15.162v10.035c0 4.32-3.52 7.823-7.85 7.823-4.34 0-7.86-3.503-7.86-7.823v-10.035zM1444.2 226.462c4.33 0 7.85 3.503 7.85 7.823v24.759c0 25.846 21.01 46.783 46.9 46.783h21.81c22.55 0 40.81 18.221 40.81 40.679 0 4.321-3.52 7.823-7.86 7.823-4.33 0-7.85-3.502-7.85-7.823 0-13.834-11.24-25.033-25.1-25.033h-21.81c-34.58 0-62.61-27.959-62.61-62.429v-24.759c0-4.32 3.52-7.823 7.86-7.823zm.61 184.601c0-21.686 17.74-39.196 39.52-39.196h69.38c4.34 0 7.86 3.502 7.86 7.823 0 4.32-3.52 7.823-7.86 7.823h-69.38c-13.19 0-23.81 10.583-23.81 23.55s10.62 23.551 23.81 23.551h28.64c4.34 0 7.85 3.502 7.85 7.823 0 4.32-3.51 7.823-7.85 7.823h-28.64c-21.78 0-39.52-17.51-39.52-39.197zm68.36 56.131c4.34 0 7.86 3.502 7.86 7.823 0 22.293-18.13 40.379-40.5 40.379h-49.33c-7.86 0-14.24 6.354-14.24 14.213 0 7.853 6.38 14.208 14.24 14.208h4.13c4.34 0 7.86 3.503 7.86 7.824 0 4.32-3.52 7.823-7.86 7.823h-4.13c-16.55 0-29.95-13.378-29.95-29.855 0-16.481 13.4-29.859 29.95-29.859h49.33c13.68 0 24.79-11.064 24.79-24.733 0-4.321 3.52-7.823 7.85-7.823zM1497.53 159.183c0-12.829 10.44-23.229 23.32-23.229s23.32 10.4 23.32 23.229c0 12.829-10.44 23.229-23.32 23.229s-23.32-10.4-23.32-23.229zm23.32-7.582c-4.21 0-7.61 3.394-7.61 7.582s3.4 7.582 7.61 7.582c4.2 0 7.61-3.394 7.61-7.582s-3.41-7.582-7.61-7.582zM1533.1 468.258c0-16.615 13.62-29.969 30.28-29.969 16.66 0 30.28 13.354 30.28 29.969 0 16.615-13.62 29.968-30.28 29.968-16.66 0-30.28-13.353-30.28-29.968zm30.28-14.323c-8.11 0-14.57 6.476-14.57 14.323 0 7.846 6.46 14.322 14.57 14.322s14.57-6.476 14.57-14.322c0-7.847-6.46-14.323-14.57-14.323zM1332.42 106.804c0-17.721 14.43-32.087 32.22-32.087s32.21 14.366 32.21 32.087c0 17.721-14.42 32.087-32.21 32.087s-32.22-14.366-32.22-32.087zm32.22-16.44c-9.12 0-16.51 7.36-16.51 16.44 0 9.08 7.39 16.441 16.51 16.441 9.11 0 16.5-7.361 16.5-16.441 0-9.08-7.39-16.44-16.5-16.44z" />
        <path d="M1302.65 106.226c0-33.885 27.95-61.165 62.18-61.165 34.24 0 62.18 27.28 62.18 61.165 0 33.886-27.94 61.165-62.18 61.165-4.34 0-7.85-3.502-7.85-7.823 0-4.32 3.51-7.823 7.85-7.823 25.77 0 46.47-20.485 46.47-45.519s-20.7-45.518-46.47-45.518-46.47 20.484-46.47 45.518c0 4.321-3.52 7.824-7.85 7.824-4.34 0-7.86-3.503-7.86-7.824zM1862.67 436.381c1.12-4.173 5.43-6.647 9.62-5.527 34.6 9.252 54.77 45.117 45.43 79.893-9.34 34.782-44.79 55.788-79.39 46.538-34.6-9.253-54.77-45.119-45.43-79.896 1.12-4.174 5.42-6.652 9.61-5.536 4.19 1.116 6.68 5.405 5.56 9.579-7.17 26.702 8.37 53.799 34.33 60.742 25.95 6.937 52.98-8.771 60.14-35.469 7.17-26.703-8.37-53.798-34.32-60.74-4.19-1.12-6.68-5.411-5.55-9.584zM1440.37 350.702c11.07-8.586 24.75-13.705 39.57-13.705h40.52c4.34 0 7.86 3.503 7.86 7.823 0 4.321-3.52 7.824-7.86 7.824h-40.52c-11.11 0-21.43 3.817-29.91 10.401-3.42 2.656-8.36 2.045-11.02-1.363a7.8 7.8 0 0 1 1.36-10.98zm-7.43 18.636c3.78 2.115 5.13 6.884 3 10.652-4.91 8.71-7.77 19.018-7.77 30.116 0 32.203 23.77 57.068 51.63 57.068 4.33 0 7.85 3.503 7.85 7.824 0 4.32-3.52 7.823-7.85 7.823-37.85 0-67.34-33.241-67.34-72.715 0-13.791 3.56-26.736 9.79-37.777 2.12-3.767 6.91-5.106 10.69-2.991zM1390.42 189.417c0-16.552 13.47-29.969 30.09-29.969 4.34 0 7.85 3.502 7.85 7.823 0 4.321-3.51 7.823-7.85 7.823-7.94 0-14.38 6.412-14.38 14.323 0 7.91 6.44 14.322 14.38 14.322s14.38-6.412 14.38-14.322v-22.146c0-4.321 3.51-7.823 7.85-7.823s7.86 3.502 7.86 7.823v22.146c0 16.551-13.47 29.968-30.09 29.968-16.62 0-30.09-13.417-30.09-29.968zM1419.42 8.208c0-4.32 3.52-7.823 7.86-7.823h29.38c20.62 0 37.24 16.742 37.24 37.287 0 20.544-16.62 37.286-37.24 37.286-20.61 0-37.24-16.742-37.24-37.286 0-4.321 3.52-7.824 7.86-7.824 4.33 0 7.85 3.503 7.85 7.824 0 12 9.69 21.64 21.53 21.64 11.85 0 21.53-9.64 21.53-21.64s-9.68-21.64-21.53-21.64h-29.38c-4.34 0-7.86-3.503-7.86-7.824zM1321.14 298.724c-9.94 0-17.86 7.921-17.86 17.516 0 9.595 7.92 17.515 17.86 17.515 4.34 0 7.85 3.503 7.85 7.824 0 4.32-3.51 7.823-7.85 7.823-18.46 0-33.57-14.768-33.57-33.162s15.11-33.162 33.57-33.162 33.57 14.768 33.57 33.162v77.493c0 4.321-3.52 7.823-7.86 7.823s-7.85-3.502-7.85-7.823V316.24c0-9.595-7.92-17.516-17.86-17.516zM1796.41 319.401c0-4.32 3.52-7.823 7.86-7.823h77.72c17.27 0 31.05 14.144 31.05 31.317 0 17.173-13.78 31.316-31.05 31.316-17.28 0-31.06-14.141-31.06-31.316 0-4.321 3.51-7.823 7.85-7.823s7.86 3.502 7.86 7.823c0 8.775 6.99 15.67 15.35 15.67 8.35 0 15.34-6.893 15.34-15.67 0-8.777-6.99-15.671-15.34-15.671h-77.72c-4.34 0-7.86-3.502-7.86-7.823zM1691.75 0c4.34 0 7.85 3.503 7.85 7.823v78.143c0 17.847-14.7 32.127-32.6 32.127-17.9 0-32.6-14.28-32.6-32.127s14.7-32.127 32.6-32.127c4.34 0 7.86 3.503 7.86 7.823s-3.52 7.823-7.86 7.823c-9.43 0-16.89 7.483-16.89 16.481 0 8.999 7.46 16.481 16.89 16.481 9.44 0 16.9-7.482 16.9-16.48V7.822c0-4.32 3.51-7.823 7.85-7.823zM1669.5 514.787c-7.89 0-14.39 6.44-14.39 14.515 0 4.321-3.52 7.824-7.86 7.824-4.33 0-7.85-3.503-7.85-7.824 0-16.599 13.42-30.161 30.1-30.161 16.69 0 30.1 13.562 30.1 30.161 0 16.599-13.41 30.162-30.1 30.162h-35.36c-4.34 0-7.86-3.503-7.86-7.823 0-4.321 3.52-7.824 7.86-7.824h35.36c7.89 0 14.4-6.439 14.4-14.515 0-8.075-6.51-14.515-14.4-14.515zM1692.52 156.367c4.34 0 7.86 3.502 7.86 7.823v82.339c0 7.811 6.4 14.211 14.38 14.211s14.38-6.4 14.38-14.211c0-7.812-6.4-14.212-14.38-14.212-4.34 0-7.86-3.502-7.86-7.823 0-4.32 3.52-7.823 7.86-7.823 16.58 0 30.08 13.33 30.08 29.858 0 16.527-13.5 29.857-30.08 29.857s-30.09-13.33-30.09-29.857V164.19c0-4.321 3.52-7.823 7.85-7.823zM1339.89 151.745c4.34 0 7.86 3.503 7.86 7.823v89.104c0 16.48-13.59 29.64-30.09 29.64-16.51 0-30.09-13.16-30.09-29.64s13.58-29.64 30.09-29.64c4.34 0 7.85 3.503 7.85 7.823 0 4.321-3.51 7.823-7.85 7.823-8.05 0-14.38 6.375-14.38 13.994 0 7.618 6.33 13.993 14.38 13.993s14.38-6.375 14.38-13.993v-89.104c0-4.32 3.51-7.823 7.85-7.823zM1473.55 159.568c0-26.11 20.95-47.492 47.05-47.492 26.1 0 47.04 21.382 47.04 47.492 0 4.321-3.52 7.823-7.85 7.823-4.34 0-7.86-3.502-7.86-7.823 0-17.707-14.15-31.846-31.33-31.846-17.19 0-31.34 14.139-31.34 31.846 0 17.708 14.15 31.846 31.34 31.846h102.71c4.34 0 7.86 3.503 7.86 7.824 0 4.32-3.52 7.823-7.86 7.823H1520.6c-26.1 0-47.05-21.383-47.05-47.493zM1762.39 208.481c0-4.321 3.51-7.823 7.85-7.823h102.72c26.1 0 47.04 21.383 47.04 47.492 0 26.11-20.94 47.493-47.04 47.493-4.34 0-7.86-3.503-7.86-7.823 0-4.321 3.52-7.823 7.86-7.823 17.19 0 31.33-14.139 31.33-31.847 0-17.707-14.14-31.846-31.33-31.846h-102.72c-4.34 0-7.85-3.502-7.85-7.823zM1758.43 46.072c-15.96 0-29.05 13.057-29.05 29.343s13.09 29.343 29.05 29.343h37.93c15.97 0 29.05-13.057 29.05-29.343s-13.08-29.343-29.05-29.343h-37.93zm-44.76 29.343c0-24.767 19.96-44.989 44.76-44.989h37.93c24.8 0 44.76 20.223 44.76 44.99 0 24.766-19.96 44.988-44.76 44.988h-37.93c-24.8 0-44.76-20.222-44.76-44.989zM1396.54 240.183c-8.38 0-15.16 6.752-15.16 15.054v65.166c0 8.301 6.78 15.054 15.16 15.054 8.38 0 15.15-6.753 15.15-15.054v-65.166c0-8.302-6.77-15.054-15.15-15.054zm0 110.92c-17.03 0-30.86-13.733-30.86-30.7v-65.166c0-16.968 13.83-30.701 30.86-30.701s30.86 13.733 30.86 30.701v65.166c0 16.967-13.83 30.7-30.86 30.7zM1631.63 269.839c-5.65 0-10.13 4.511-10.13 9.957v34.406c0 4.321-3.52 7.823-7.85 7.823-4.34 0-7.86-3.502-7.86-7.823v-34.406c0-14.194 11.62-25.604 25.84-25.604 14.21 0 25.83 11.41 25.83 25.604v68.812c0 14.194-11.62 25.603-25.83 25.603-14.22 0-25.84-11.409-25.84-25.603v-8.313c0-4.32 3.52-7.823 7.86-7.823 4.33 0 7.85 3.503 7.85 7.823v8.313c0 5.446 4.48 9.957 10.13 9.957 5.64 0 10.12-4.511 10.12-9.957v-68.812c0-5.446-4.48-9.957-10.12-9.957z" />
        <path d="M1615.77 16.031c-12.87 0-23.27 10.361-23.27 23.097v94.142c0 12.736 10.4 23.097 23.27 23.097 12.88 0 23.27-10.361 23.27-23.097v-2.999c0-4.321 3.52-7.823 7.86-7.823s7.85 3.502 7.85 7.823v2.999c0 21.417-17.47 38.743-38.98 38.743-21.51 0-38.98-17.326-38.98-38.743V39.128c0-21.417 17.47-38.743 38.98-38.743 21.51 0 38.98 17.326 38.98 38.743v.923c0 4.32-3.51 7.823-7.85 7.823s-7.86-3.503-7.86-7.823v-.923c0-12.736-10.39-23.097-23.27-23.097zM1287.57 398.355c0-17.501 14.23-31.702 31.81-31.702h1.86c4.33 0 7.85 3.503 7.85 7.823 0 4.321-3.52 7.823-7.85 7.823h-1.86c-8.89 0-16.1 7.181-16.1 16.056s7.21 16.056 16.1 16.056h55.33c8.89 0 16.1-7.181 16.1-16.056s-7.21-16.056-16.1-16.056h-1.86c-4.33 0-7.85-3.502-7.85-7.823 0-4.32 3.52-7.823 7.85-7.823h1.86c17.58 0 31.81 14.201 31.81 31.702s-14.23 31.702-31.81 31.702h-55.33c-17.58 0-31.81-14.201-31.81-31.702zM1583.87 254.192c4.34 0 7.86 3.503 7.86 7.823v89.213c0 22.279 18.31 40.459 41.06 40.459 22.74 0 41.05-18.18 41.05-40.459V330.15c0-4.32 3.52-7.823 7.86-7.823s7.85 3.503 7.85 7.823v21.078c0 31.053-25.48 56.106-56.76 56.106-31.29 0-56.77-25.053-56.77-56.106v-89.213c0-4.32 3.52-7.823 7.85-7.823zM1477.81 412.99c0-4.32 3.51-7.823 7.85-7.823h80.35c34.96 0 63.22 28.374 63.22 63.283 0 34.907-28.26 63.284-63.22 63.284h-24.17c-4.34 0-7.86-3.503-7.86-7.823 0-4.321 3.52-7.824 7.86-7.824h24.17c26.2 0 47.52-21.288 47.52-47.637 0-26.35-21.32-47.637-47.52-47.637h-80.35c-4.34 0-7.85-3.502-7.85-7.823zM1501.06 239.413c-8.42 0-15.28 6.82-15.28 15.285 0 8.464 6.86 15.285 15.28 15.285h19.01c4.34 0 7.86 3.503 7.86 7.823 0 4.321-3.52 7.823-7.86 7.823h-19.01c-17.14 0-30.99-13.871-30.99-30.931 0-17.06 13.85-30.932 30.99-30.932h38.03c17.14 0 30.98 13.872 30.98 30.932v2.053c0 15.926-12.92 28.878-28.92 28.878-4.34 0-7.86-3.502-7.86-7.823 0-4.32 3.52-7.823 7.86-7.823 7.27 0 13.22-5.901 13.22-13.232v-2.053c0-8.465-6.87-15.285-15.28-15.285h-38.03zM1658.76 164.768c0-18.458 15.78-32.665 34.27-32.665h43.45c18.49 0 34.27 14.207 34.27 32.665s-15.78 32.664-34.27 32.664h-21.72c-4.34 0-7.86-3.502-7.86-7.823 0-4.32 3.52-7.823 7.86-7.823h21.72c10.68 0 18.56-8.038 18.56-17.018 0-8.981-7.88-17.019-18.56-17.019h-43.45c-10.68 0-18.56 8.038-18.56 17.019 0 4.32-3.51 7.823-7.85 7.823s-7.86-3.503-7.86-7.823zM1434.89 145.703c0-37.258 30.2-67.52 67.52-67.52h52.08c4.33 0 7.85 3.503 7.85 7.823 0 4.321-3.52 7.824-7.85 7.824h-52.08c-28.58 0-51.81 23.192-51.81 51.873 0 4.321-3.52 7.823-7.86 7.823-4.33 0-7.85-3.502-7.85-7.823zM1831.72 343.545c4.34 0 7.85 3.502 7.85 7.823v143.241c0 7.766 6.39 14.161 14.38 14.161 8 0 14.38-6.395 14.38-14.161 0-7.765-6.38-14.16-14.38-14.16-4.33 0-7.85-3.503-7.85-7.824 0-4.32 3.52-7.823 7.85-7.823 16.57 0 30.09 13.293 30.09 29.807s-13.52 29.807-30.09 29.807c-16.56 0-30.08-13.293-30.08-29.807V351.368c0-4.321 3.51-7.823 7.85-7.823zM1727.96 453.935c-17.92 0-32.61 14.68-32.61 33.002 0 4.321-3.52 7.823-7.85 7.823-4.34 0-7.86-3.502-7.86-7.823 0-26.771 21.54-48.648 48.32-48.648h71.28c4.34 0 7.86 3.503 7.86 7.823 0 4.321-3.52 7.823-7.86 7.823h-71.28zM1666.62 177.549c4.34 0 7.85 3.503 7.85 7.824 0 29.822-24.2 54.039-54.11 54.039h-38.03c-4.34 0-7.86-3.502-7.86-7.823 0-4.32 3.52-7.823 7.86-7.823h38.03c21.19 0 38.4-17.166 38.4-38.393 0-4.321 3.52-7.824 7.86-7.824zM1804.27 344.315c4.34 0 7.85 3.503 7.85 7.823v20.703c0 25.221-20.53 45.662-45.86 45.662h-29.66c-4.33 0-7.85-3.503-7.85-7.824 0-4.32 3.52-7.823 7.85-7.823h29.66c16.66 0 30.15-13.441 30.15-30.015v-20.703c0-4.32 3.52-7.823 7.86-7.823zM1793.32 291.671c0-27.863 22.49-50.573 50.38-50.573h32.49c4.33 0 7.85 3.502 7.85 7.823 0 4.32-3.52 7.823-7.85 7.823h-32.49c-19.08 0-34.67 15.57-34.67 34.927 0 4.321-3.52 7.823-7.85 7.823-4.34 0-7.86-3.502-7.86-7.823zM1422.59 473.401c.89 4.23-1.84 8.374-6.08 9.255-18.34 3.807-30.87 18.059-30.87 33.891v35.093c0 4.321-3.52 7.824-7.86 7.824-4.33 0-7.85-3.503-7.85-7.824v-35.093c0-24.579 19.15-44.18 43.37-49.208 4.25-.882 8.41 1.833 9.29 6.062zM1310.7 125.556c4.34 0 7.85 3.502 7.85 7.823v70.865c0 4.321-3.51 7.824-7.85 7.824s-7.86-3.503-7.86-7.824v-70.865c0-4.321 3.52-7.823 7.86-7.823zM1454.22 551.448c0-4.321 3.52-7.823 7.86-7.823h146.54c4.34 0 7.85 3.502 7.85 7.823 0 4.321-3.51 7.823-7.85 7.823h-146.54c-4.34 0-7.86-3.502-7.86-7.823zM1714.37 288.47c4.34 0 7.85 3.502 7.85 7.823v58.541c0 4.321-3.51 7.823-7.85 7.823s-7.85-3.502-7.85-7.823v-58.541c0-4.321 3.51-7.823 7.85-7.823zM1654.83 447.532c4.33 0 7.85 3.503 7.85 7.824v23.878c0 4.321-3.52 7.823-7.85 7.823-4.34 0-7.86-3.502-7.86-7.823v-23.878c0-4.321 3.52-7.824 7.86-7.824z" />
        <path d="M1770.24 226.077c4.34 0 7.86 3.503 7.86 7.823v54.817c0 13.007-10.66 23.435-23.66 23.435-4.45 0-7.95 3.547-7.95 7.795v3.239c0 4.248 3.51 7.795 7.95 7.795 13.01 0 23.66 10.438 23.66 23.441v3.587c0 14.983-12.28 27.027-27.29 27.027H1726c-4.34 0-7.85-3.503-7.85-7.823 0-4.321 3.51-7.823 7.85-7.823h24.81c6.45 0 11.58-5.153 11.58-11.381v-3.587c0-4.248-3.5-7.795-7.95-7.795-13.01 0-23.65-10.438-23.65-23.441v-3.239c0-13.003 10.64-23.441 23.65-23.441 4.45 0 7.95-3.544 7.95-7.789V233.9c0-4.32 3.51-7.823 7.85-7.823zm-58.79 155.958c4.34 0 7.86 3.502 7.86 7.823 0 25.614-20.87 46.361-46.59 46.361h-10.36c-4.33 0-7.85-3.503-7.85-7.823 0-4.321 3.52-7.823 7.85-7.823h10.36c17.06 0 30.88-13.761 30.88-30.715 0-4.321 3.52-7.823 7.85-7.823zM1778.24 159.338c0-15.276 12.46-27.62 27.79-27.62 15.32 0 27.78 12.345 27.78 27.62v6.471c0 6.674 5.46 12.126 12.24 12.126 6.77 0 12.23-5.451 12.23-12.126v-7.812c0-4.32 3.52-7.823 7.85-7.823 4.34 0 7.86 3.503 7.86 7.823v7.812c0 15.359-12.54 27.772-27.94 27.772-15.41 0-27.94-12.411-27.94-27.772v-6.471c0-6.592-5.39-11.974-12.08-11.974s-12.08 5.383-12.08 11.974v7.964c0 4.32-3.52 7.823-7.86 7.823-4.33 0-7.85-3.503-7.85-7.823v-7.964zM1742.79 482.821c-11.25 0-20.37 9.084-20.37 20.279v20.438c0 11.195 9.12 20.279 20.37 20.279 11.25 0 20.37-9.084 20.37-20.279V503.1c0-11.195-9.12-20.279-20.37-20.279zm0 76.643c-19.92 0-36.08-16.083-36.08-35.926V503.1c0-19.843 16.16-35.926 36.08-35.926 19.92 0 36.08 16.083 36.08 35.926v20.438c0 19.843-16.16 35.926-36.08 35.926z" />
      </g>
    </symbol>
    <symbol id="leftArrow" fill="none" xmlns="http://www.w3.org/2000/svg">
      <path
        fillRule="evenodd"
        clipRule="evenodd"
        d="M7.832 17.642L.345 9.864a1.256 1.256 0 0 1 0-1.728L7.832.358a1.146 1.146 0 0 1 1.663 0c.46.477.46 1.251 0 1.728L4.017 7.778H20v2.444H4.017l5.478 5.692c.46.477.46 1.25 0 1.728a1.146 1.146 0 0 1-1.663 0z"
        fill="currentColor"
      />
    </symbol>
    <symbol id="location" xmlns="http://www.w3.org/2000/svg" viewBox="0 0 24 24">
      <path
        class="location-primary"
        fill="currentColor"
        d="M5.64 16.36a9 9 0 1 1 12.72 0l-5.65 5.66a1 1 0 0 1-1.42 0l-5.65-5.66zM12 13a3 3 0 1 0 0-6 3 3 0 0 0 0 6z"
      />
      <path
        class="location-secondary"
        fill="currentColor"
        d="M12 1a9 9 0 0 1 6.36 15.36l-5.65 5.66a1 1 0 0 1-.71.3V13a3 3 0 0 0 0-6V1z"
      />
    </symbol>
  </defs>
</svg>